<?xml version="1.0" standalone="no"?><!DOCTYPE svg PUBLIC "-//W3C//DTD SVG 1.1//EN" "http://www.w3.org/Graphics/SVG/1.1/DTD/svg11.dtd"><svg t="1690615553660" class="icon" viewBox="0 0 1024 1024" version="1.1" xmlns="http://www.w3.org/2000/svg" p-id="5669" width="32" height="32" xmlns:xlink="http://www.w3.org/1999/xlink"><path d="M910.39744 828.60032a46.134613 46.134613 0 0 1-46.127787 46.134613H218.487467a46.134613 46.134613 0 0 1-46.127787-46.134613V367.32928a46.134613 46.134613 0 0 1 46.127787-46.127787h645.789013a46.14144 46.14144 0 0 1 46.127787 46.127787v461.27104z" fill="#D3BE66" p-id="5670"></path><path d="M864.27648 228.94592H541.381973V182.818133a46.134613 46.134613 0 0 0-46.127786-46.127786H218.487467a46.14144 46.14144 0 0 0-46.127787 46.127786v184.511147a46.134613 46.134613 0 0 1 46.127787-46.127787h645.789013a46.14144 46.14144 0 0 1 46.127787 46.127787V275.06688a46.134613 46.134613 0 0 0-46.127787-46.12096z" fill="#434854" p-id="5671"></path><path d="M864.27648 298.134187H218.487467a46.14144 46.14144 0 0 0-46.127787 46.127786v23.067307a46.134613 46.134613 0 0 1 46.127787-46.127787h645.789013a46.14144 46.14144 0 0 1 46.127787 46.127787v-23.067307a46.148267 46.148267 0 0 0-46.127787-46.127786z" fill="#1C1C1C" p-id="5672"></path><path d="M264.615253 275.06688h553.53344v46.127787H264.615253v-46.127787z" fill="#EAEAEA" p-id="5673"></path><path d="M729.545387 719.93344L567.15264 561.943893c15.29856-40.707413 5.8368-88.118613-28.071253-121.11872-35.67616-34.720427-88.603307-41.04192-130.587307-21.0944L485.239467 494.3872l-52.10112 53.541547-78.49984-74.62912c-20.534613 42.53696-11.011413 95.218347 24.671573 129.952426 33.91488 32.986453 81.565013 41.14432 121.83552 24.733014l162.4064 158.0032c7.133867 6.9632 17.701547 6.813013 24.651093-0.320854l39.929174-41.069226c8.704-7.161173 8.533333-19.47648 1.41312-24.664747z" fill="#3F3F3F" p-id="5674"></path></svg>