<?xml version="1.0" standalone="no"?><!DOCTYPE svg PUBLIC "-//W3C//DTD SVG 1.1//EN" "http://www.w3.org/Graphics/SVG/1.1/DTD/svg11.dtd"><svg t="1690620003449" class="icon" viewBox="0 0 1024 1024" version="1.1" xmlns="http://www.w3.org/2000/svg" p-id="17661" xmlns:xlink="http://www.w3.org/1999/xlink" width="32" height="32"><path d="M563.2 592.4352H409.6v219.4432h153.6v-219.4432z m0-219.392H409.6V537.6h153.6V373.0432zM875.2128 153.6H145.6128L102.4 205.056V921.6h819.2V206.7456L875.2128 153.6zM716.8 208.4352h51.2v54.8864h-51.2V208.4352z m-102.4 0h51.2v54.8864h-51.2V208.4352z m256 658.3296H153.6V318.1568h716.8v548.608z m0-603.4432h-51.2V208.4352h51.2v54.8864zM358.4 592.4352H204.8v219.4432h153.6v-219.4432z m0-219.392H204.8V537.6h153.6V373.0432z" fill="#e6e6e6" p-id="17662" data-spm-anchor-id="a313x.7781069.0.i7" class="selected"></path></svg>